<svg xmlns="http://www.w3.org/2000/svg" width="80" height="24" viewBox="0 0 80 24"><path d="M15.842 13.672l.13-.684h2.673l.148-.204c.062-.068.177-.228.348-.48h1.25c-.07.115-.185.274-.346.48l-.15.204h4.43l-.13.684h-4.94c-.33.318-.69.615-1.085.89h1.317l.125-.65h1.173l-.126.65h2.635l-.357 1.878c-.115.73-.548 1.08-1.3 1.06h-.77l.125-.65h.367c.293 0 .465-.136.518-.41l.222-1.16h-1.58l-.552 2.903h-1.172l.552-2.904H17.81l-.43 2.25h-1.1l.416-2.188c-.237.09-.592.227-1.066.41-.078.022-.144.045-.197.067l.13-.684c1.063-.455 1.864-.944 2.403-1.47h-2.124zm8.056-1.16c-1.463-.14-2.663-.31-3.6-.514-1.015.204-2.28.375-3.795.513l.11-.58c.473-.04 1.125-.13 1.956-.27.192-.02.35-.043.45-.07-.66-.27-1.25-.69-1.77-1.26h1.46c.514.364 1.09.66 1.73.888.728-.227 1.42-.523 2.074-.888h1.463c-.743.57-1.494.99-2.253 1.263.093.02.235.045.426.067.355.067.97.16 1.854.272l-.113.58zm1.197 1.398l.143-.75h8.42l-.142.75h-4.43c-.75 1.116-1.648 2.05-2.693 2.803 1.83 0 3.38-.068 4.65-.206-.092-.41-.22-.83-.38-1.263h1.024c.365.773.602 1.65.707 2.63H31.26c.01-.046.007-.103-.005-.17-.027-.115-.048-.263-.063-.444-1.962.182-3.786.272-5.47.272h-.692l.156-.82c1.047-.888 1.86-1.82 2.436-2.8h-2.527zm1.225-2.39l.15-.786h6.88l-.148.786H26.32z" fill="#FFF" stroke="#FFF" stroke-width=".25" stroke-miterlimit="10"/><path d="M35.772 18.048c-.11 0-.232-.026-.37-.078s-.272-.11-.41-.18-.26-.14-.368-.216-.19-.14-.246-.187c-.41-.36-.645-.798-.705-1.313-.06-.517.008-1.058.2-1.626.2-.568.514-1.11.942-1.626.43-.517.97-.954 1.628-1.314.09-.048.222-.11.39-.186.17-.076.345-.15.527-.223.182-.078.362-.14.54-.19s.32-.08.43-.08h2.75l-.478 1.355h-2.6c-.046 0-.12.02-.22.054-.1.036-.202.076-.307.12s-.206.09-.302.14-.162.082-.197.106c-.402.226-.73.498-.98.817-.25.32-.44.66-.567 1.02-.13.36-.18.7-.15 1.02.02.32.16.594.39.817.026.025.073.06.14.11.06.05.13.095.203.14s.146.083.22.12c.072.034.13.053.177.053h2.6l-.48 1.344h-2.76zm9.7-4.764l.082-.23c.055-.167.046-.307-.027-.42-.072-.11-.184-.2-.335-.27-.15-.067-.323-.115-.52-.144-.196-.027-.386-.042-.567-.042-.184 0-.37.013-.562.036-.19.024-.374.066-.547.126-.173.06-.323.145-.452.252-.127.108-.223.25-.287.426-.055.16-.063.288-.027.385.037.096.107.17.213.222.104.052.244.09.417.114.173.02.37.04.588.06l.315.03s.223.01.342.03c.22.02.438.06.656.1.21.057.41.135.59.234.177.1.324.237.442.413.246.392.273.855.08 1.392-.136.4-.345.735-.63 1.007-.28.274-.6.496-.955.668-.355.172-.732.296-1.13.37-.395.077-.78.115-1.155.115-.467 0-.88-.057-1.24-.173-.36-.117-.646-.29-.855-.52-.21-.23-.34-.52-.39-.866-.05-.343.002-.742.157-1.2h1.546l-.097.266c-.025.09-.035.19-.025.3.01.112.027.21.055.29.036.11.1.202.19.274.092.07.196.127.315.167s.248.07.39.09c.142.02.285.03.43.03.185 0 .37-.012.563-.035.19-.024.374-.066.547-.126.173-.06.323-.144.452-.25.126-.11.222-.25.286-.427.055-.16.063-.29.027-.39-.034-.1-.104-.18-.21-.23-.104-.05-.244-.09-.416-.115-.174-.022-.37-.042-.59-.06-.1-.015-.204-.024-.313-.03-.11-.002-.22-.012-.33-.03-.225-.02-.45-.06-.67-.105-.21-.056-.4-.134-.58-.233-.18-.1-.324-.24-.442-.413-.247-.384-.28-.832-.097-1.344.136-.4.343-.74.62-1.023s.596-.515.95-.69c.356-.177.735-.305 1.137-.385.4-.078.793-.12 1.176-.12.42 0 .81.048 1.17.14.36.092.656.238.89.438.23.2.387.457.464.77.078.31.05.688-.088 1.128h-1.55zm6.033 1.572c-.064.03-.15.07-.26.113s-.224.082-.342.13c-.12.04-.238.08-.355.11-.12.03-.215.05-.288.05h-2.202l-.984 2.794h-1.547l2.56-7.272h3.747c.073 0 .157.016.254.048.096.033.188.07.28.115.09.044.175.088.253.132.08.042.14.08.19.112.284.206.455.472.515.796.06.325.025.67-.103 1.04s-.335.71-.622 1.03c-.288.32-.652.585-1.09.793zm.014-2.544c-.02-.016-.07-.046-.15-.09s-.13-.065-.158-.065H49.15l-.614 1.74h2.053c.04.008.12-.015.23-.066s.183-.08.23-.1c.152-.09.28-.19.38-.31.1-.12.18-.25.233-.382.044-.16.058-.298.04-.414s-.082-.22-.19-.306zm5.07 5.724l1.066-3.024H54.43l-1.066 3.013H51.83l2.53-7.225h1.56l-1.01 2.856h3.243l1-2.845H60.7l-2.545 7.23h-1.558zm1.94.012l2.53-7.212h6.05l-.48 1.356H62.14l-.533 1.5h3.72l-.478 1.355h-3.72l-.575 1.656h4.487l-.48 1.344h-6.03zm10.74.012l-1.19-2.76h-.643l-.985 2.784H64.91l2.56-7.248h3.748c.072 0 .157.017.253.048.1.032.19.068.28.108.098.04.18.082.26.126s.14.082.185.114c.273.208.44.474.506.798.064.323.03.67-.096 1.038-.093.264-.225.512-.398.743-.173.24-.376.45-.608.638-.232.188-.488.35-.767.485-.277.137-.572.24-.882.313l1.218 2.82h-1.89zm1.63-5.712c-.02-.016-.068-.046-.147-.09-.077-.044-.135-.065-.17-.065H68.53l-.614 1.74h2.064c.037 0 .11-.024.22-.072.11-.042.187-.08.23-.1.157-.08.284-.18.386-.3.1-.12.177-.25.23-.385.046-.16.06-.3.04-.414-.015-.117-.08-.22-.19-.307zm.52 5.7l2.53-7.212H80l-.48 1.356h-4.486l-.533 1.5h3.728l-.48 1.355h-3.72l-.575 1.656h4.487l-.48 1.344h-6.03z" fill="#FFF"/><linearGradient id="a" gradientUnits="userSpaceOnUse" x1="21.602" y1="24.356" x2="21.814" y2=".533" gradientTransform="matrix(1 -.01 .01 1.004 1.942 -.258)"><stop offset="0" stop-color="#D36F33"/><stop offset="1" stop-color="#DDAD54"/></linearGradient><path fill="url(#a)" d="M47.522 4.535s-7.647 3.18-13.71 1.92c-6.06-1.26-11.9-4.97-16.124-6.006C13.464-.59 8.183.73 5.815 2.37 3.337 4.08 1.318 5.74.27 10.016c-.79 3.23.314 6.45 1.168 7.788.855 1.336 5.376 7.068 12.274 6.082 4.404-.627 7.21-3.31 7.745-4.057 0 0-.36.19-.967.44l-.154.06c-.004 0-.007.002-.01.004-1.088.43-2.862.983-4.85 1.034-.047.002-.095.002-.142.002h-.136c-.604-.004-1.224-.06-1.842-.19-.716-.15-1.36-.335-1.947-.55-2.32-.986-3.72-2.2-4.51-3.666-.103-.208-.197-.42-.275-.634-.143-.39-.27-.79-.373-1.195-.235-1.163-.275-2.573.103-4.01.203-.65.503-1.34.93-2.08.376-.655.805-1.206 1.25-1.67h.005c.035-.038.07-.067.105-.1.146-.147.3-.29.466-.427 2.245-1.882 5.098-2.43 7.85-2.08l.187.026c.17.023.338.05.503.08.06.01.12.023.177.034.655.13 1.303.305 1.93.527.927.326 2.013.762 3.214 1.212 1.816.73 3.577 1.262 5.21 1.635l.435.098.357.072c.205.04.408.082.614.118 2.315.412 4.292.463 5.664.224.22-.04.45-.08.684-.127 6.743-.98 11.59-4.14 11.59-4.14z"/></svg>